<mxfile host="app.diagrams.net" modified="2023-02-28T10:53:55.069Z" agent="5.0 (Macintosh; Intel Mac OS X 10_15_7) AppleWebKit/605.1.15 (KHTML, like Gecko) Version/15.1 Safari/605.1.15" etag="wWcGvlZcZtydjLjJOgmv" version="20.8.23" type="github">
  <diagram id="R2lEEEUBdFMjLlhIrx00" name="Page-1">
    <mxGraphModel dx="1688" dy="560" grid="1" gridSize="10" guides="1" tooltips="1" connect="1" arrows="1" fold="1" page="1" pageScale="1" pageWidth="850" pageHeight="1100" math="0" shadow="0" extFonts="Permanent Marker^https://fonts.googleapis.com/css?family=Permanent+Marker">
      <root>
        <mxCell id="0" />
        <mxCell id="1" parent="0" />
        <mxCell id="wW7LY3y4CDmuFLGHlZAy-274" value="Assets" style="childLayout=tableLayout;recursiveResize=0;strokeColor=#98bf21;fillColor=#A7C942;shadow=1;" vertex="1" parent="1">
          <mxGeometry x="-330" y="100" width="466" height="177" as="geometry" />
        </mxCell>
        <mxCell id="wW7LY3y4CDmuFLGHlZAy-275" style="shape=tableRow;horizontal=0;startSize=0;swimlaneHead=0;swimlaneBody=0;top=0;left=0;bottom=0;right=0;dropTarget=0;collapsible=0;recursiveResize=0;expand=0;fontStyle=0;strokeColor=inherit;fillColor=#ffffff;" vertex="1" parent="wW7LY3y4CDmuFLGHlZAy-274">
          <mxGeometry width="466" height="50" as="geometry" />
        </mxCell>
        <mxCell id="wW7LY3y4CDmuFLGHlZAy-276" value="学号&lt;br&gt;Sno" style="connectable=0;recursiveResize=0;strokeColor=inherit;fillColor=#A7C942;align=center;fontStyle=1;fontColor=#FFFFFF;html=1;" vertex="1" parent="wW7LY3y4CDmuFLGHlZAy-275">
          <mxGeometry width="93" height="50" as="geometry">
            <mxRectangle width="93" height="50" as="alternateBounds" />
          </mxGeometry>
        </mxCell>
        <mxCell id="wW7LY3y4CDmuFLGHlZAy-277" value="姓名&lt;br&gt;Sname" style="connectable=0;recursiveResize=0;strokeColor=inherit;fillColor=#A7C942;align=center;fontStyle=1;fontColor=#FFFFFF;html=1;" vertex="1" parent="wW7LY3y4CDmuFLGHlZAy-275">
          <mxGeometry x="93" width="94" height="50" as="geometry">
            <mxRectangle width="94" height="50" as="alternateBounds" />
          </mxGeometry>
        </mxCell>
        <mxCell id="wW7LY3y4CDmuFLGHlZAy-278" value="性别&lt;br&gt;Ssex" style="connectable=0;recursiveResize=0;strokeColor=inherit;fillColor=#A7C942;align=center;fontStyle=1;fontColor=#FFFFFF;html=1;" vertex="1" parent="wW7LY3y4CDmuFLGHlZAy-275">
          <mxGeometry x="187" width="93" height="50" as="geometry">
            <mxRectangle width="93" height="50" as="alternateBounds" />
          </mxGeometry>
        </mxCell>
        <mxCell id="wW7LY3y4CDmuFLGHlZAy-295" value="年龄&lt;br&gt;Sage" style="connectable=0;recursiveResize=0;strokeColor=inherit;fillColor=#A7C942;align=center;fontStyle=1;fontColor=#FFFFFF;html=1;" vertex="1" parent="wW7LY3y4CDmuFLGHlZAy-275">
          <mxGeometry x="280" width="93" height="50" as="geometry">
            <mxRectangle width="93" height="50" as="alternateBounds" />
          </mxGeometry>
        </mxCell>
        <mxCell id="wW7LY3y4CDmuFLGHlZAy-300" value="所在系&lt;br&gt;Sdept" style="connectable=0;recursiveResize=0;strokeColor=inherit;fillColor=#A7C942;align=center;fontStyle=1;fontColor=#FFFFFF;html=1;" vertex="1" parent="wW7LY3y4CDmuFLGHlZAy-275">
          <mxGeometry x="373" width="93" height="50" as="geometry">
            <mxRectangle width="93" height="50" as="alternateBounds" />
          </mxGeometry>
        </mxCell>
        <mxCell id="wW7LY3y4CDmuFLGHlZAy-279" value="" style="shape=tableRow;horizontal=0;startSize=0;swimlaneHead=0;swimlaneBody=0;top=0;left=0;bottom=0;right=0;dropTarget=0;collapsible=0;recursiveResize=0;expand=0;fontStyle=0;strokeColor=inherit;fillColor=#ffffff;" vertex="1" parent="wW7LY3y4CDmuFLGHlZAy-274">
          <mxGeometry y="50" width="466" height="32" as="geometry" />
        </mxCell>
        <mxCell id="wW7LY3y4CDmuFLGHlZAy-280" value="201215121" style="connectable=0;recursiveResize=0;strokeColor=inherit;fillColor=inherit;align=center;whiteSpace=wrap;html=1;" vertex="1" parent="wW7LY3y4CDmuFLGHlZAy-279">
          <mxGeometry width="93" height="32" as="geometry">
            <mxRectangle width="93" height="32" as="alternateBounds" />
          </mxGeometry>
        </mxCell>
        <mxCell id="wW7LY3y4CDmuFLGHlZAy-281" value="李勇" style="connectable=0;recursiveResize=0;strokeColor=inherit;fillColor=inherit;align=center;whiteSpace=wrap;html=1;" vertex="1" parent="wW7LY3y4CDmuFLGHlZAy-279">
          <mxGeometry x="93" width="94" height="32" as="geometry">
            <mxRectangle width="94" height="32" as="alternateBounds" />
          </mxGeometry>
        </mxCell>
        <mxCell id="wW7LY3y4CDmuFLGHlZAy-282" value="男" style="connectable=0;recursiveResize=0;strokeColor=inherit;fillColor=inherit;align=center;whiteSpace=wrap;html=1;" vertex="1" parent="wW7LY3y4CDmuFLGHlZAy-279">
          <mxGeometry x="187" width="93" height="32" as="geometry">
            <mxRectangle width="93" height="32" as="alternateBounds" />
          </mxGeometry>
        </mxCell>
        <mxCell id="wW7LY3y4CDmuFLGHlZAy-296" value="20" style="connectable=0;recursiveResize=0;strokeColor=inherit;fillColor=inherit;align=center;whiteSpace=wrap;html=1;" vertex="1" parent="wW7LY3y4CDmuFLGHlZAy-279">
          <mxGeometry x="280" width="93" height="32" as="geometry">
            <mxRectangle width="93" height="32" as="alternateBounds" />
          </mxGeometry>
        </mxCell>
        <mxCell id="wW7LY3y4CDmuFLGHlZAy-301" value="CS" style="connectable=0;recursiveResize=0;strokeColor=inherit;fillColor=inherit;align=center;whiteSpace=wrap;html=1;" vertex="1" parent="wW7LY3y4CDmuFLGHlZAy-279">
          <mxGeometry x="373" width="93" height="32" as="geometry">
            <mxRectangle width="93" height="32" as="alternateBounds" />
          </mxGeometry>
        </mxCell>
        <mxCell id="wW7LY3y4CDmuFLGHlZAy-283" value="" style="shape=tableRow;horizontal=0;startSize=0;swimlaneHead=0;swimlaneBody=0;top=0;left=0;bottom=0;right=0;dropTarget=0;collapsible=0;recursiveResize=0;expand=0;fontStyle=1;strokeColor=inherit;fillColor=#EAF2D3;" vertex="1" parent="wW7LY3y4CDmuFLGHlZAy-274">
          <mxGeometry y="82" width="466" height="31" as="geometry" />
        </mxCell>
        <mxCell id="wW7LY3y4CDmuFLGHlZAy-284" value="201215122" style="connectable=0;recursiveResize=0;strokeColor=inherit;fillColor=inherit;whiteSpace=wrap;html=1;" vertex="1" parent="wW7LY3y4CDmuFLGHlZAy-283">
          <mxGeometry width="93" height="31" as="geometry">
            <mxRectangle width="93" height="31" as="alternateBounds" />
          </mxGeometry>
        </mxCell>
        <mxCell id="wW7LY3y4CDmuFLGHlZAy-285" value="刘晨" style="connectable=0;recursiveResize=0;strokeColor=inherit;fillColor=inherit;whiteSpace=wrap;html=1;" vertex="1" parent="wW7LY3y4CDmuFLGHlZAy-283">
          <mxGeometry x="93" width="94" height="31" as="geometry">
            <mxRectangle width="94" height="31" as="alternateBounds" />
          </mxGeometry>
        </mxCell>
        <mxCell id="wW7LY3y4CDmuFLGHlZAy-286" value="女" style="connectable=0;recursiveResize=0;strokeColor=inherit;fillColor=inherit;whiteSpace=wrap;html=1;" vertex="1" parent="wW7LY3y4CDmuFLGHlZAy-283">
          <mxGeometry x="187" width="93" height="31" as="geometry">
            <mxRectangle width="93" height="31" as="alternateBounds" />
          </mxGeometry>
        </mxCell>
        <mxCell id="wW7LY3y4CDmuFLGHlZAy-297" value="19" style="connectable=0;recursiveResize=0;strokeColor=inherit;fillColor=inherit;whiteSpace=wrap;html=1;" vertex="1" parent="wW7LY3y4CDmuFLGHlZAy-283">
          <mxGeometry x="280" width="93" height="31" as="geometry">
            <mxRectangle width="93" height="31" as="alternateBounds" />
          </mxGeometry>
        </mxCell>
        <mxCell id="wW7LY3y4CDmuFLGHlZAy-302" value="CS" style="connectable=0;recursiveResize=0;strokeColor=inherit;fillColor=inherit;whiteSpace=wrap;html=1;" vertex="1" parent="wW7LY3y4CDmuFLGHlZAy-283">
          <mxGeometry x="373" width="93" height="31" as="geometry">
            <mxRectangle width="93" height="31" as="alternateBounds" />
          </mxGeometry>
        </mxCell>
        <mxCell id="wW7LY3y4CDmuFLGHlZAy-287" value="" style="shape=tableRow;horizontal=0;startSize=0;swimlaneHead=0;swimlaneBody=0;top=0;left=0;bottom=0;right=0;dropTarget=0;collapsible=0;recursiveResize=0;expand=0;fontStyle=0;strokeColor=inherit;fillColor=#ffffff;" vertex="1" parent="wW7LY3y4CDmuFLGHlZAy-274">
          <mxGeometry y="113" width="466" height="33" as="geometry" />
        </mxCell>
        <mxCell id="wW7LY3y4CDmuFLGHlZAy-288" value="201212123" style="connectable=0;recursiveResize=0;strokeColor=inherit;fillColor=inherit;fontStyle=0;align=center;whiteSpace=wrap;html=1;" vertex="1" parent="wW7LY3y4CDmuFLGHlZAy-287">
          <mxGeometry width="93" height="33" as="geometry">
            <mxRectangle width="93" height="33" as="alternateBounds" />
          </mxGeometry>
        </mxCell>
        <mxCell id="wW7LY3y4CDmuFLGHlZAy-289" value="王敏" style="connectable=0;recursiveResize=0;strokeColor=inherit;fillColor=inherit;fontStyle=0;align=center;whiteSpace=wrap;html=1;" vertex="1" parent="wW7LY3y4CDmuFLGHlZAy-287">
          <mxGeometry x="93" width="94" height="33" as="geometry">
            <mxRectangle width="94" height="33" as="alternateBounds" />
          </mxGeometry>
        </mxCell>
        <mxCell id="wW7LY3y4CDmuFLGHlZAy-290" value="女" style="connectable=0;recursiveResize=0;strokeColor=inherit;fillColor=inherit;fontStyle=0;align=center;whiteSpace=wrap;html=1;" vertex="1" parent="wW7LY3y4CDmuFLGHlZAy-287">
          <mxGeometry x="187" width="93" height="33" as="geometry">
            <mxRectangle width="93" height="33" as="alternateBounds" />
          </mxGeometry>
        </mxCell>
        <mxCell id="wW7LY3y4CDmuFLGHlZAy-298" value="18" style="connectable=0;recursiveResize=0;strokeColor=inherit;fillColor=inherit;fontStyle=0;align=center;whiteSpace=wrap;html=1;" vertex="1" parent="wW7LY3y4CDmuFLGHlZAy-287">
          <mxGeometry x="280" width="93" height="33" as="geometry">
            <mxRectangle width="93" height="33" as="alternateBounds" />
          </mxGeometry>
        </mxCell>
        <mxCell id="wW7LY3y4CDmuFLGHlZAy-303" value="MA" style="connectable=0;recursiveResize=0;strokeColor=inherit;fillColor=inherit;fontStyle=0;align=center;whiteSpace=wrap;html=1;" vertex="1" parent="wW7LY3y4CDmuFLGHlZAy-287">
          <mxGeometry x="373" width="93" height="33" as="geometry">
            <mxRectangle width="93" height="33" as="alternateBounds" />
          </mxGeometry>
        </mxCell>
        <mxCell id="wW7LY3y4CDmuFLGHlZAy-291" value="" style="shape=tableRow;horizontal=0;startSize=0;swimlaneHead=0;swimlaneBody=0;top=0;left=0;bottom=0;right=0;dropTarget=0;collapsible=0;recursiveResize=0;expand=0;fontStyle=1;strokeColor=inherit;fillColor=#EAF2D3;" vertex="1" parent="wW7LY3y4CDmuFLGHlZAy-274">
          <mxGeometry y="146" width="466" height="31" as="geometry" />
        </mxCell>
        <mxCell id="wW7LY3y4CDmuFLGHlZAy-292" value="201215125" style="connectable=0;recursiveResize=0;strokeColor=inherit;fillColor=inherit;whiteSpace=wrap;html=1;" vertex="1" parent="wW7LY3y4CDmuFLGHlZAy-291">
          <mxGeometry width="93" height="31" as="geometry">
            <mxRectangle width="93" height="31" as="alternateBounds" />
          </mxGeometry>
        </mxCell>
        <mxCell id="wW7LY3y4CDmuFLGHlZAy-293" value="张立" style="connectable=0;recursiveResize=0;strokeColor=inherit;fillColor=inherit;whiteSpace=wrap;html=1;" vertex="1" parent="wW7LY3y4CDmuFLGHlZAy-291">
          <mxGeometry x="93" width="94" height="31" as="geometry">
            <mxRectangle width="94" height="31" as="alternateBounds" />
          </mxGeometry>
        </mxCell>
        <mxCell id="wW7LY3y4CDmuFLGHlZAy-294" value="男" style="connectable=0;recursiveResize=0;strokeColor=inherit;fillColor=inherit;whiteSpace=wrap;html=1;" vertex="1" parent="wW7LY3y4CDmuFLGHlZAy-291">
          <mxGeometry x="187" width="93" height="31" as="geometry">
            <mxRectangle width="93" height="31" as="alternateBounds" />
          </mxGeometry>
        </mxCell>
        <mxCell id="wW7LY3y4CDmuFLGHlZAy-299" value="19" style="connectable=0;recursiveResize=0;strokeColor=inherit;fillColor=inherit;whiteSpace=wrap;html=1;" vertex="1" parent="wW7LY3y4CDmuFLGHlZAy-291">
          <mxGeometry x="280" width="93" height="31" as="geometry">
            <mxRectangle width="93" height="31" as="alternateBounds" />
          </mxGeometry>
        </mxCell>
        <mxCell id="wW7LY3y4CDmuFLGHlZAy-304" value="IS" style="connectable=0;recursiveResize=0;strokeColor=inherit;fillColor=inherit;whiteSpace=wrap;html=1;" vertex="1" parent="wW7LY3y4CDmuFLGHlZAy-291">
          <mxGeometry x="373" width="93" height="31" as="geometry">
            <mxRectangle width="93" height="31" as="alternateBounds" />
          </mxGeometry>
        </mxCell>
        <mxCell id="wW7LY3y4CDmuFLGHlZAy-363" value="Assets" style="childLayout=tableLayout;recursiveResize=0;strokeColor=#98bf21;fillColor=#A7C942;shadow=1;" vertex="1" parent="1">
          <mxGeometry x="285" y="100" width="280" height="228" as="geometry" />
        </mxCell>
        <mxCell id="wW7LY3y4CDmuFLGHlZAy-364" style="shape=tableRow;horizontal=0;startSize=0;swimlaneHead=0;swimlaneBody=0;top=0;left=0;bottom=0;right=0;dropTarget=0;collapsible=0;recursiveResize=0;expand=0;fontStyle=0;strokeColor=inherit;fillColor=#ffffff;" vertex="1" parent="wW7LY3y4CDmuFLGHlZAy-363">
          <mxGeometry width="280" height="50" as="geometry" />
        </mxCell>
        <mxCell id="wW7LY3y4CDmuFLGHlZAy-365" value="学号&lt;br&gt;Sno" style="connectable=0;recursiveResize=0;strokeColor=inherit;fillColor=#A7C942;align=center;fontStyle=1;fontColor=#FFFFFF;html=1;" vertex="1" parent="wW7LY3y4CDmuFLGHlZAy-364">
          <mxGeometry width="85" height="50" as="geometry">
            <mxRectangle width="85" height="50" as="alternateBounds" />
          </mxGeometry>
        </mxCell>
        <mxCell id="wW7LY3y4CDmuFLGHlZAy-366" value="课程号&lt;br&gt;Cno" style="connectable=0;recursiveResize=0;strokeColor=inherit;fillColor=#A7C942;align=center;fontStyle=1;fontColor=#FFFFFF;html=1;" vertex="1" parent="wW7LY3y4CDmuFLGHlZAy-364">
          <mxGeometry x="85" width="102" height="50" as="geometry">
            <mxRectangle width="102" height="50" as="alternateBounds" />
          </mxGeometry>
        </mxCell>
        <mxCell id="wW7LY3y4CDmuFLGHlZAy-367" value="成绩&lt;br&gt;Grade" style="connectable=0;recursiveResize=0;strokeColor=inherit;fillColor=#A7C942;align=center;fontStyle=1;fontColor=#FFFFFF;html=1;" vertex="1" parent="wW7LY3y4CDmuFLGHlZAy-364">
          <mxGeometry x="187" width="93" height="50" as="geometry">
            <mxRectangle width="93" height="50" as="alternateBounds" />
          </mxGeometry>
        </mxCell>
        <mxCell id="wW7LY3y4CDmuFLGHlZAy-384" style="shape=tableRow;horizontal=0;startSize=0;swimlaneHead=0;swimlaneBody=0;top=0;left=0;bottom=0;right=0;dropTarget=0;collapsible=0;recursiveResize=0;expand=0;fontStyle=1;strokeColor=inherit;fillColor=#EAF2D3;" vertex="1" parent="wW7LY3y4CDmuFLGHlZAy-363">
          <mxGeometry y="50" width="280" height="34" as="geometry" />
        </mxCell>
        <mxCell id="wW7LY3y4CDmuFLGHlZAy-385" value="201215121" style="connectable=0;recursiveResize=0;strokeColor=inherit;fillColor=inherit;whiteSpace=wrap;html=1;" vertex="1" parent="wW7LY3y4CDmuFLGHlZAy-384">
          <mxGeometry width="85" height="34" as="geometry">
            <mxRectangle width="85" height="34" as="alternateBounds" />
          </mxGeometry>
        </mxCell>
        <mxCell id="wW7LY3y4CDmuFLGHlZAy-386" value="1" style="connectable=0;recursiveResize=0;strokeColor=inherit;fillColor=inherit;whiteSpace=wrap;html=1;" vertex="1" parent="wW7LY3y4CDmuFLGHlZAy-384">
          <mxGeometry x="85" width="102" height="34" as="geometry">
            <mxRectangle width="102" height="34" as="alternateBounds" />
          </mxGeometry>
        </mxCell>
        <mxCell id="wW7LY3y4CDmuFLGHlZAy-387" value="92" style="connectable=0;recursiveResize=0;strokeColor=inherit;fillColor=inherit;whiteSpace=wrap;html=1;" vertex="1" parent="wW7LY3y4CDmuFLGHlZAy-384">
          <mxGeometry x="187" width="93" height="34" as="geometry">
            <mxRectangle width="93" height="34" as="alternateBounds" />
          </mxGeometry>
        </mxCell>
        <mxCell id="wW7LY3y4CDmuFLGHlZAy-368" value="" style="shape=tableRow;horizontal=0;startSize=0;swimlaneHead=0;swimlaneBody=0;top=0;left=0;bottom=0;right=0;dropTarget=0;collapsible=0;recursiveResize=0;expand=0;fontStyle=0;strokeColor=inherit;fillColor=#ffffff;" vertex="1" parent="wW7LY3y4CDmuFLGHlZAy-363">
          <mxGeometry y="84" width="280" height="40" as="geometry" />
        </mxCell>
        <mxCell id="wW7LY3y4CDmuFLGHlZAy-369" value="201215121" style="connectable=0;recursiveResize=0;strokeColor=inherit;fillColor=inherit;align=center;whiteSpace=wrap;html=1;" vertex="1" parent="wW7LY3y4CDmuFLGHlZAy-368">
          <mxGeometry width="85" height="40" as="geometry">
            <mxRectangle width="85" height="40" as="alternateBounds" />
          </mxGeometry>
        </mxCell>
        <mxCell id="wW7LY3y4CDmuFLGHlZAy-370" value="2" style="connectable=0;recursiveResize=0;strokeColor=inherit;fillColor=inherit;align=center;whiteSpace=wrap;html=1;" vertex="1" parent="wW7LY3y4CDmuFLGHlZAy-368">
          <mxGeometry x="85" width="102" height="40" as="geometry">
            <mxRectangle width="102" height="40" as="alternateBounds" />
          </mxGeometry>
        </mxCell>
        <mxCell id="wW7LY3y4CDmuFLGHlZAy-371" value="85" style="connectable=0;recursiveResize=0;strokeColor=inherit;fillColor=inherit;align=center;whiteSpace=wrap;html=1;" vertex="1" parent="wW7LY3y4CDmuFLGHlZAy-368">
          <mxGeometry x="187" width="93" height="40" as="geometry">
            <mxRectangle width="93" height="40" as="alternateBounds" />
          </mxGeometry>
        </mxCell>
        <mxCell id="wW7LY3y4CDmuFLGHlZAy-380" value="" style="shape=tableRow;horizontal=0;startSize=0;swimlaneHead=0;swimlaneBody=0;top=0;left=0;bottom=0;right=0;dropTarget=0;collapsible=0;recursiveResize=0;expand=0;fontStyle=1;strokeColor=inherit;fillColor=#EAF2D3;" vertex="1" parent="wW7LY3y4CDmuFLGHlZAy-363">
          <mxGeometry y="124" width="280" height="34" as="geometry" />
        </mxCell>
        <mxCell id="wW7LY3y4CDmuFLGHlZAy-381" value="201215121" style="connectable=0;recursiveResize=0;strokeColor=inherit;fillColor=inherit;whiteSpace=wrap;html=1;" vertex="1" parent="wW7LY3y4CDmuFLGHlZAy-380">
          <mxGeometry width="85" height="34" as="geometry">
            <mxRectangle width="85" height="34" as="alternateBounds" />
          </mxGeometry>
        </mxCell>
        <mxCell id="wW7LY3y4CDmuFLGHlZAy-382" value="3" style="connectable=0;recursiveResize=0;strokeColor=inherit;fillColor=inherit;whiteSpace=wrap;html=1;" vertex="1" parent="wW7LY3y4CDmuFLGHlZAy-380">
          <mxGeometry x="85" width="102" height="34" as="geometry">
            <mxRectangle width="102" height="34" as="alternateBounds" />
          </mxGeometry>
        </mxCell>
        <mxCell id="wW7LY3y4CDmuFLGHlZAy-383" value="88" style="connectable=0;recursiveResize=0;strokeColor=inherit;fillColor=inherit;whiteSpace=wrap;html=1;" vertex="1" parent="wW7LY3y4CDmuFLGHlZAy-380">
          <mxGeometry x="187" width="93" height="34" as="geometry">
            <mxRectangle width="93" height="34" as="alternateBounds" />
          </mxGeometry>
        </mxCell>
        <mxCell id="wW7LY3y4CDmuFLGHlZAy-376" value="" style="shape=tableRow;horizontal=0;startSize=0;swimlaneHead=0;swimlaneBody=0;top=0;left=0;bottom=0;right=0;dropTarget=0;collapsible=0;recursiveResize=0;expand=0;fontStyle=0;strokeColor=inherit;fillColor=#ffffff;" vertex="1" parent="wW7LY3y4CDmuFLGHlZAy-363">
          <mxGeometry y="158" width="280" height="36" as="geometry" />
        </mxCell>
        <mxCell id="wW7LY3y4CDmuFLGHlZAy-377" value="201215122" style="connectable=0;recursiveResize=0;strokeColor=inherit;fillColor=inherit;fontStyle=0;align=center;whiteSpace=wrap;html=1;" vertex="1" parent="wW7LY3y4CDmuFLGHlZAy-376">
          <mxGeometry width="85" height="36" as="geometry">
            <mxRectangle width="85" height="36" as="alternateBounds" />
          </mxGeometry>
        </mxCell>
        <mxCell id="wW7LY3y4CDmuFLGHlZAy-378" value="2" style="connectable=0;recursiveResize=0;strokeColor=inherit;fillColor=inherit;fontStyle=0;align=center;whiteSpace=wrap;html=1;" vertex="1" parent="wW7LY3y4CDmuFLGHlZAy-376">
          <mxGeometry x="85" width="102" height="36" as="geometry">
            <mxRectangle width="102" height="36" as="alternateBounds" />
          </mxGeometry>
        </mxCell>
        <mxCell id="wW7LY3y4CDmuFLGHlZAy-379" value="90" style="connectable=0;recursiveResize=0;strokeColor=inherit;fillColor=inherit;fontStyle=0;align=center;whiteSpace=wrap;html=1;" vertex="1" parent="wW7LY3y4CDmuFLGHlZAy-376">
          <mxGeometry x="187" width="93" height="36" as="geometry">
            <mxRectangle width="93" height="36" as="alternateBounds" />
          </mxGeometry>
        </mxCell>
        <mxCell id="wW7LY3y4CDmuFLGHlZAy-372" value="" style="shape=tableRow;horizontal=0;startSize=0;swimlaneHead=0;swimlaneBody=0;top=0;left=0;bottom=0;right=0;dropTarget=0;collapsible=0;recursiveResize=0;expand=0;fontStyle=1;strokeColor=inherit;fillColor=#EAF2D3;" vertex="1" parent="wW7LY3y4CDmuFLGHlZAy-363">
          <mxGeometry y="194" width="280" height="34" as="geometry" />
        </mxCell>
        <mxCell id="wW7LY3y4CDmuFLGHlZAy-373" value="201215122" style="connectable=0;recursiveResize=0;strokeColor=inherit;fillColor=inherit;whiteSpace=wrap;html=1;" vertex="1" parent="wW7LY3y4CDmuFLGHlZAy-372">
          <mxGeometry width="85" height="34" as="geometry">
            <mxRectangle width="85" height="34" as="alternateBounds" />
          </mxGeometry>
        </mxCell>
        <mxCell id="wW7LY3y4CDmuFLGHlZAy-374" value="3" style="connectable=0;recursiveResize=0;strokeColor=inherit;fillColor=inherit;whiteSpace=wrap;html=1;" vertex="1" parent="wW7LY3y4CDmuFLGHlZAy-372">
          <mxGeometry x="85" width="102" height="34" as="geometry">
            <mxRectangle width="102" height="34" as="alternateBounds" />
          </mxGeometry>
        </mxCell>
        <mxCell id="wW7LY3y4CDmuFLGHlZAy-375" value="80" style="connectable=0;recursiveResize=0;strokeColor=inherit;fillColor=inherit;whiteSpace=wrap;html=1;" vertex="1" parent="wW7LY3y4CDmuFLGHlZAy-372">
          <mxGeometry x="187" width="93" height="34" as="geometry">
            <mxRectangle width="93" height="34" as="alternateBounds" />
          </mxGeometry>
        </mxCell>
        <mxCell id="wW7LY3y4CDmuFLGHlZAy-388" value="Assets" style="childLayout=tableLayout;recursiveResize=0;strokeColor=#98bf21;fillColor=#A7C942;shadow=1;" vertex="1" parent="1">
          <mxGeometry x="-320" y="330" width="370" height="275" as="geometry" />
        </mxCell>
        <mxCell id="wW7LY3y4CDmuFLGHlZAy-389" style="shape=tableRow;horizontal=0;startSize=0;swimlaneHead=0;swimlaneBody=0;top=0;left=0;bottom=0;right=0;dropTarget=0;collapsible=0;recursiveResize=0;expand=0;fontStyle=0;strokeColor=inherit;fillColor=#ffffff;" vertex="1" parent="wW7LY3y4CDmuFLGHlZAy-388">
          <mxGeometry width="370" height="52" as="geometry" />
        </mxCell>
        <mxCell id="wW7LY3y4CDmuFLGHlZAy-390" value="课程号&lt;br&gt;Cno" style="connectable=0;recursiveResize=0;strokeColor=inherit;fillColor=#A7C942;align=center;fontStyle=1;fontColor=#FFFFFF;html=1;" vertex="1" parent="wW7LY3y4CDmuFLGHlZAy-389">
          <mxGeometry width="92" height="52" as="geometry">
            <mxRectangle width="92" height="52" as="alternateBounds" />
          </mxGeometry>
        </mxCell>
        <mxCell id="wW7LY3y4CDmuFLGHlZAy-391" value="课程名&lt;br&gt;Cname" style="connectable=0;recursiveResize=0;strokeColor=inherit;fillColor=#A7C942;align=center;fontStyle=1;fontColor=#FFFFFF;html=1;" vertex="1" parent="wW7LY3y4CDmuFLGHlZAy-389">
          <mxGeometry x="92" width="93" height="52" as="geometry">
            <mxRectangle width="93" height="52" as="alternateBounds" />
          </mxGeometry>
        </mxCell>
        <mxCell id="wW7LY3y4CDmuFLGHlZAy-392" value="先行课&lt;br&gt;Cpno" style="connectable=0;recursiveResize=0;strokeColor=inherit;fillColor=#A7C942;align=center;fontStyle=1;fontColor=#FFFFFF;html=1;" vertex="1" parent="wW7LY3y4CDmuFLGHlZAy-389">
          <mxGeometry x="185" width="93" height="52" as="geometry">
            <mxRectangle width="93" height="52" as="alternateBounds" />
          </mxGeometry>
        </mxCell>
        <mxCell id="wW7LY3y4CDmuFLGHlZAy-409" value="学分&lt;br&gt;Ccredit" style="connectable=0;recursiveResize=0;strokeColor=inherit;fillColor=#A7C942;align=center;fontStyle=1;fontColor=#FFFFFF;html=1;" vertex="1" parent="wW7LY3y4CDmuFLGHlZAy-389">
          <mxGeometry x="278" width="92" height="52" as="geometry">
            <mxRectangle width="92" height="52" as="alternateBounds" />
          </mxGeometry>
        </mxCell>
        <mxCell id="wW7LY3y4CDmuFLGHlZAy-393" value="" style="shape=tableRow;horizontal=0;startSize=0;swimlaneHead=0;swimlaneBody=0;top=0;left=0;bottom=0;right=0;dropTarget=0;collapsible=0;recursiveResize=0;expand=0;fontStyle=0;strokeColor=inherit;fillColor=#ffffff;" vertex="1" parent="wW7LY3y4CDmuFLGHlZAy-388">
          <mxGeometry y="52" width="370" height="31" as="geometry" />
        </mxCell>
        <mxCell id="wW7LY3y4CDmuFLGHlZAy-394" value="1" style="connectable=0;recursiveResize=0;strokeColor=inherit;fillColor=inherit;align=center;whiteSpace=wrap;html=1;" vertex="1" parent="wW7LY3y4CDmuFLGHlZAy-393">
          <mxGeometry width="92" height="31" as="geometry">
            <mxRectangle width="92" height="31" as="alternateBounds" />
          </mxGeometry>
        </mxCell>
        <mxCell id="wW7LY3y4CDmuFLGHlZAy-395" value="数据库" style="connectable=0;recursiveResize=0;strokeColor=inherit;fillColor=inherit;align=center;whiteSpace=wrap;html=1;" vertex="1" parent="wW7LY3y4CDmuFLGHlZAy-393">
          <mxGeometry x="92" width="93" height="31" as="geometry">
            <mxRectangle width="93" height="31" as="alternateBounds" />
          </mxGeometry>
        </mxCell>
        <mxCell id="wW7LY3y4CDmuFLGHlZAy-396" value="5" style="connectable=0;recursiveResize=0;strokeColor=inherit;fillColor=inherit;align=center;whiteSpace=wrap;html=1;" vertex="1" parent="wW7LY3y4CDmuFLGHlZAy-393">
          <mxGeometry x="185" width="93" height="31" as="geometry">
            <mxRectangle width="93" height="31" as="alternateBounds" />
          </mxGeometry>
        </mxCell>
        <mxCell id="wW7LY3y4CDmuFLGHlZAy-410" value="4" style="connectable=0;recursiveResize=0;strokeColor=inherit;fillColor=inherit;align=center;whiteSpace=wrap;html=1;" vertex="1" parent="wW7LY3y4CDmuFLGHlZAy-393">
          <mxGeometry x="278" width="92" height="31" as="geometry">
            <mxRectangle width="92" height="31" as="alternateBounds" />
          </mxGeometry>
        </mxCell>
        <mxCell id="wW7LY3y4CDmuFLGHlZAy-397" value="" style="shape=tableRow;horizontal=0;startSize=0;swimlaneHead=0;swimlaneBody=0;top=0;left=0;bottom=0;right=0;dropTarget=0;collapsible=0;recursiveResize=0;expand=0;fontStyle=1;strokeColor=inherit;fillColor=#EAF2D3;" vertex="1" parent="wW7LY3y4CDmuFLGHlZAy-388">
          <mxGeometry y="83" width="370" height="27" as="geometry" />
        </mxCell>
        <mxCell id="wW7LY3y4CDmuFLGHlZAy-398" value="2" style="connectable=0;recursiveResize=0;strokeColor=inherit;fillColor=inherit;whiteSpace=wrap;html=1;" vertex="1" parent="wW7LY3y4CDmuFLGHlZAy-397">
          <mxGeometry width="92" height="27" as="geometry">
            <mxRectangle width="92" height="27" as="alternateBounds" />
          </mxGeometry>
        </mxCell>
        <mxCell id="wW7LY3y4CDmuFLGHlZAy-399" value="数学" style="connectable=0;recursiveResize=0;strokeColor=inherit;fillColor=inherit;whiteSpace=wrap;html=1;" vertex="1" parent="wW7LY3y4CDmuFLGHlZAy-397">
          <mxGeometry x="92" width="93" height="27" as="geometry">
            <mxRectangle width="93" height="27" as="alternateBounds" />
          </mxGeometry>
        </mxCell>
        <mxCell id="wW7LY3y4CDmuFLGHlZAy-400" value="" style="connectable=0;recursiveResize=0;strokeColor=inherit;fillColor=inherit;whiteSpace=wrap;html=1;" vertex="1" parent="wW7LY3y4CDmuFLGHlZAy-397">
          <mxGeometry x="185" width="93" height="27" as="geometry">
            <mxRectangle width="93" height="27" as="alternateBounds" />
          </mxGeometry>
        </mxCell>
        <mxCell id="wW7LY3y4CDmuFLGHlZAy-411" value="2" style="connectable=0;recursiveResize=0;strokeColor=inherit;fillColor=inherit;whiteSpace=wrap;html=1;" vertex="1" parent="wW7LY3y4CDmuFLGHlZAy-397">
          <mxGeometry x="278" width="92" height="27" as="geometry">
            <mxRectangle width="92" height="27" as="alternateBounds" />
          </mxGeometry>
        </mxCell>
        <mxCell id="wW7LY3y4CDmuFLGHlZAy-424" style="shape=tableRow;horizontal=0;startSize=0;swimlaneHead=0;swimlaneBody=0;top=0;left=0;bottom=0;right=0;dropTarget=0;collapsible=0;recursiveResize=0;expand=0;fontStyle=1;strokeColor=inherit;fillColor=#EAF2D3;" vertex="1" parent="wW7LY3y4CDmuFLGHlZAy-388">
          <mxGeometry y="110" width="370" height="32" as="geometry" />
        </mxCell>
        <mxCell id="wW7LY3y4CDmuFLGHlZAy-425" value="3" style="connectable=0;recursiveResize=0;strokeColor=inherit;fillColor=inherit;whiteSpace=wrap;html=1;" vertex="1" parent="wW7LY3y4CDmuFLGHlZAy-424">
          <mxGeometry width="92" height="32" as="geometry">
            <mxRectangle width="92" height="32" as="alternateBounds" />
          </mxGeometry>
        </mxCell>
        <mxCell id="wW7LY3y4CDmuFLGHlZAy-426" value="信息系统" style="connectable=0;recursiveResize=0;strokeColor=inherit;fillColor=inherit;whiteSpace=wrap;html=1;" vertex="1" parent="wW7LY3y4CDmuFLGHlZAy-424">
          <mxGeometry x="92" width="93" height="32" as="geometry">
            <mxRectangle width="93" height="32" as="alternateBounds" />
          </mxGeometry>
        </mxCell>
        <mxCell id="wW7LY3y4CDmuFLGHlZAy-427" value="1" style="connectable=0;recursiveResize=0;strokeColor=inherit;fillColor=inherit;whiteSpace=wrap;html=1;" vertex="1" parent="wW7LY3y4CDmuFLGHlZAy-424">
          <mxGeometry x="185" width="93" height="32" as="geometry">
            <mxRectangle width="93" height="32" as="alternateBounds" />
          </mxGeometry>
        </mxCell>
        <mxCell id="wW7LY3y4CDmuFLGHlZAy-428" value="4" style="connectable=0;recursiveResize=0;strokeColor=inherit;fillColor=inherit;whiteSpace=wrap;html=1;" vertex="1" parent="wW7LY3y4CDmuFLGHlZAy-424">
          <mxGeometry x="278" width="92" height="32" as="geometry">
            <mxRectangle width="92" height="32" as="alternateBounds" />
          </mxGeometry>
        </mxCell>
        <mxCell id="wW7LY3y4CDmuFLGHlZAy-419" style="shape=tableRow;horizontal=0;startSize=0;swimlaneHead=0;swimlaneBody=0;top=0;left=0;bottom=0;right=0;dropTarget=0;collapsible=0;recursiveResize=0;expand=0;fontStyle=1;strokeColor=inherit;fillColor=#EAF2D3;" vertex="1" parent="wW7LY3y4CDmuFLGHlZAy-388">
          <mxGeometry y="142" width="370" height="33" as="geometry" />
        </mxCell>
        <mxCell id="wW7LY3y4CDmuFLGHlZAy-420" value="4" style="connectable=0;recursiveResize=0;strokeColor=inherit;fillColor=inherit;whiteSpace=wrap;html=1;" vertex="1" parent="wW7LY3y4CDmuFLGHlZAy-419">
          <mxGeometry width="92" height="33" as="geometry">
            <mxRectangle width="92" height="33" as="alternateBounds" />
          </mxGeometry>
        </mxCell>
        <mxCell id="wW7LY3y4CDmuFLGHlZAy-421" value="操作系统" style="connectable=0;recursiveResize=0;strokeColor=inherit;fillColor=inherit;whiteSpace=wrap;html=1;" vertex="1" parent="wW7LY3y4CDmuFLGHlZAy-419">
          <mxGeometry x="92" width="93" height="33" as="geometry">
            <mxRectangle width="93" height="33" as="alternateBounds" />
          </mxGeometry>
        </mxCell>
        <mxCell id="wW7LY3y4CDmuFLGHlZAy-422" value="6" style="connectable=0;recursiveResize=0;strokeColor=inherit;fillColor=inherit;whiteSpace=wrap;html=1;" vertex="1" parent="wW7LY3y4CDmuFLGHlZAy-419">
          <mxGeometry x="185" width="93" height="33" as="geometry">
            <mxRectangle width="93" height="33" as="alternateBounds" />
          </mxGeometry>
        </mxCell>
        <mxCell id="wW7LY3y4CDmuFLGHlZAy-423" value="3" style="connectable=0;recursiveResize=0;strokeColor=inherit;fillColor=inherit;whiteSpace=wrap;html=1;" vertex="1" parent="wW7LY3y4CDmuFLGHlZAy-419">
          <mxGeometry x="278" width="92" height="33" as="geometry">
            <mxRectangle width="92" height="33" as="alternateBounds" />
          </mxGeometry>
        </mxCell>
        <mxCell id="wW7LY3y4CDmuFLGHlZAy-414" style="shape=tableRow;horizontal=0;startSize=0;swimlaneHead=0;swimlaneBody=0;top=0;left=0;bottom=0;right=0;dropTarget=0;collapsible=0;recursiveResize=0;expand=0;fontStyle=1;strokeColor=inherit;fillColor=#EAF2D3;" vertex="1" parent="wW7LY3y4CDmuFLGHlZAy-388">
          <mxGeometry y="175" width="370" height="32" as="geometry" />
        </mxCell>
        <mxCell id="wW7LY3y4CDmuFLGHlZAy-415" value="5" style="connectable=0;recursiveResize=0;strokeColor=inherit;fillColor=inherit;whiteSpace=wrap;html=1;" vertex="1" parent="wW7LY3y4CDmuFLGHlZAy-414">
          <mxGeometry width="92" height="32" as="geometry">
            <mxRectangle width="92" height="32" as="alternateBounds" />
          </mxGeometry>
        </mxCell>
        <mxCell id="wW7LY3y4CDmuFLGHlZAy-416" value="数据结构" style="connectable=0;recursiveResize=0;strokeColor=inherit;fillColor=inherit;whiteSpace=wrap;html=1;" vertex="1" parent="wW7LY3y4CDmuFLGHlZAy-414">
          <mxGeometry x="92" width="93" height="32" as="geometry">
            <mxRectangle width="93" height="32" as="alternateBounds" />
          </mxGeometry>
        </mxCell>
        <mxCell id="wW7LY3y4CDmuFLGHlZAy-417" value="7" style="connectable=0;recursiveResize=0;strokeColor=inherit;fillColor=inherit;whiteSpace=wrap;html=1;" vertex="1" parent="wW7LY3y4CDmuFLGHlZAy-414">
          <mxGeometry x="185" width="93" height="32" as="geometry">
            <mxRectangle width="93" height="32" as="alternateBounds" />
          </mxGeometry>
        </mxCell>
        <mxCell id="wW7LY3y4CDmuFLGHlZAy-418" value="4" style="connectable=0;recursiveResize=0;strokeColor=inherit;fillColor=inherit;whiteSpace=wrap;html=1;" vertex="1" parent="wW7LY3y4CDmuFLGHlZAy-414">
          <mxGeometry x="278" width="92" height="32" as="geometry">
            <mxRectangle width="92" height="32" as="alternateBounds" />
          </mxGeometry>
        </mxCell>
        <mxCell id="wW7LY3y4CDmuFLGHlZAy-405" value="" style="shape=tableRow;horizontal=0;startSize=0;swimlaneHead=0;swimlaneBody=0;top=0;left=0;bottom=0;right=0;dropTarget=0;collapsible=0;recursiveResize=0;expand=0;fontStyle=1;strokeColor=inherit;fillColor=#EAF2D3;" vertex="1" parent="wW7LY3y4CDmuFLGHlZAy-388">
          <mxGeometry y="207" width="370" height="32" as="geometry" />
        </mxCell>
        <mxCell id="wW7LY3y4CDmuFLGHlZAy-406" value="6" style="connectable=0;recursiveResize=0;strokeColor=inherit;fillColor=inherit;whiteSpace=wrap;html=1;" vertex="1" parent="wW7LY3y4CDmuFLGHlZAy-405">
          <mxGeometry width="92" height="32" as="geometry">
            <mxRectangle width="92" height="32" as="alternateBounds" />
          </mxGeometry>
        </mxCell>
        <mxCell id="wW7LY3y4CDmuFLGHlZAy-407" value="数据处理" style="connectable=0;recursiveResize=0;strokeColor=inherit;fillColor=inherit;whiteSpace=wrap;html=1;" vertex="1" parent="wW7LY3y4CDmuFLGHlZAy-405">
          <mxGeometry x="92" width="93" height="32" as="geometry">
            <mxRectangle width="93" height="32" as="alternateBounds" />
          </mxGeometry>
        </mxCell>
        <mxCell id="wW7LY3y4CDmuFLGHlZAy-408" value="" style="connectable=0;recursiveResize=0;strokeColor=inherit;fillColor=inherit;whiteSpace=wrap;html=1;" vertex="1" parent="wW7LY3y4CDmuFLGHlZAy-405">
          <mxGeometry x="185" width="93" height="32" as="geometry">
            <mxRectangle width="93" height="32" as="alternateBounds" />
          </mxGeometry>
        </mxCell>
        <mxCell id="wW7LY3y4CDmuFLGHlZAy-413" value="2" style="connectable=0;recursiveResize=0;strokeColor=inherit;fillColor=inherit;whiteSpace=wrap;html=1;" vertex="1" parent="wW7LY3y4CDmuFLGHlZAy-405">
          <mxGeometry x="278" width="92" height="32" as="geometry">
            <mxRectangle width="92" height="32" as="alternateBounds" />
          </mxGeometry>
        </mxCell>
        <mxCell id="wW7LY3y4CDmuFLGHlZAy-401" value="" style="shape=tableRow;horizontal=0;startSize=0;swimlaneHead=0;swimlaneBody=0;top=0;left=0;bottom=0;right=0;dropTarget=0;collapsible=0;recursiveResize=0;expand=0;fontStyle=0;strokeColor=inherit;fillColor=#ffffff;" vertex="1" parent="wW7LY3y4CDmuFLGHlZAy-388">
          <mxGeometry y="239" width="370" height="36" as="geometry" />
        </mxCell>
        <mxCell id="wW7LY3y4CDmuFLGHlZAy-402" value="7" style="connectable=0;recursiveResize=0;fontStyle=0;align=center;whiteSpace=wrap;html=1;" vertex="1" parent="wW7LY3y4CDmuFLGHlZAy-401">
          <mxGeometry width="92" height="36" as="geometry">
            <mxRectangle width="92" height="36" as="alternateBounds" />
          </mxGeometry>
        </mxCell>
        <mxCell id="wW7LY3y4CDmuFLGHlZAy-403" value="PASCAL语言" style="connectable=0;recursiveResize=0;fontStyle=0;align=center;whiteSpace=wrap;html=1;" vertex="1" parent="wW7LY3y4CDmuFLGHlZAy-401">
          <mxGeometry x="92" width="93" height="36" as="geometry">
            <mxRectangle width="93" height="36" as="alternateBounds" />
          </mxGeometry>
        </mxCell>
        <mxCell id="wW7LY3y4CDmuFLGHlZAy-404" value="6" style="connectable=0;recursiveResize=0;strokeColor=inherit;fillColor=inherit;fontStyle=0;align=center;whiteSpace=wrap;html=1;" vertex="1" parent="wW7LY3y4CDmuFLGHlZAy-401">
          <mxGeometry x="185" width="93" height="36" as="geometry">
            <mxRectangle width="93" height="36" as="alternateBounds" />
          </mxGeometry>
        </mxCell>
        <mxCell id="wW7LY3y4CDmuFLGHlZAy-412" value="4" style="connectable=0;recursiveResize=0;strokeColor=inherit;fillColor=inherit;fontStyle=0;align=center;whiteSpace=wrap;html=1;" vertex="1" parent="wW7LY3y4CDmuFLGHlZAy-401">
          <mxGeometry x="278" width="92" height="36" as="geometry">
            <mxRectangle width="92" height="36" as="alternateBounds" />
          </mxGeometry>
        </mxCell>
        <mxCell id="wW7LY3y4CDmuFLGHlZAy-429" value="" style="endArrow=classic;html=1;rounded=0;exitX=1;exitY=0.25;exitDx=0;exitDy=0;entryX=0;entryY=0.25;entryDx=0;entryDy=0;" edge="1" parent="1" source="wW7LY3y4CDmuFLGHlZAy-424" target="wW7LY3y4CDmuFLGHlZAy-380">
          <mxGeometry width="50" height="50" relative="1" as="geometry">
            <mxPoint x="30" y="310" as="sourcePoint" />
            <mxPoint x="80" y="260" as="targetPoint" />
            <Array as="points">
              <mxPoint x="160" y="340" />
            </Array>
          </mxGeometry>
        </mxCell>
        <mxCell id="wW7LY3y4CDmuFLGHlZAy-430" value="" style="endArrow=classic;html=1;rounded=0;exitX=1;exitY=0.571;exitDx=0;exitDy=0;exitPerimeter=0;entryX=0;entryY=0;entryDx=0;entryDy=0;" edge="1" parent="1" source="wW7LY3y4CDmuFLGHlZAy-274" target="wW7LY3y4CDmuFLGHlZAy-380">
          <mxGeometry width="50" height="50" relative="1" as="geometry">
            <mxPoint x="30" y="270" as="sourcePoint" />
            <mxPoint x="140" y="350" as="targetPoint" />
          </mxGeometry>
        </mxCell>
      </root>
    </mxGraphModel>
  </diagram>
</mxfile>
